<svg xmlns="http://www.w3.org/2000/svg" width="69" height="69" viewBox="0 0 69 69">
    <g fill="none" fill-rule="nonzero" transform="translate(.5)">
        <path fill="#215732" d="M68.536 26.039L17.622 55.85 2.464 29.961 53.378.15z"/>
        <path fill="#91D8A7" d="M49.511 6L9.201 29.822c.878 1.51.34 3.474-1.201 4.384l9.112 15.706c1.54-.91 3.5-.423 4.376 1.088l40.31-23.822c-.877-1.51-.339-3.474 1.202-4.384L53.888 7.088c-1.54.91-3.5.423-4.377-1.088z"/>
        <g fill="#215732" transform="translate(23 14)">
            <ellipse cx="12.305" cy="13.708" rx="10.262" ry="8.234" transform="rotate(-120.35 12.305 13.708)"/>
            <ellipse cx="32.117" cy="1.927" rx="1.834" ry="1.863"/>
        </g>
        <circle cx="16" cy="40" r="2" fill="#3EA69B"/>
        <path fill="#44C4A1" d="M39.2 35l-.741-1.264c-1.678.765-3.468.968-5.368.608l.382-2.247c1.464.275 2.756.193 3.88-.247l-1.968-3.36c-1.488.453-2.684.603-3.588.45-.904-.154-1.649-.73-2.233-1.727-.585-.999-.715-2.019-.388-3.063.327-1.044 1.034-1.922 2.121-2.636l-.507-.866L31.898 20l.517.883c1.325-.65 2.78-.92 4.365-.81l-.193 2.252a6.482 6.482 0 0 0-3.066.445l1.907 3.255.052-.031c1.511-.465 2.734-.615 3.668-.449.936.166 1.7.754 2.29 1.764.593 1.01.717 2.042.372 3.095-.344 1.055-1.088 1.954-2.233 2.702l.73 1.246L39.2 35zm-7.771-10.46c-.143.432-.1.841.126 1.228.227.387.522.625.885.714.362.091.928.05 1.697-.12l-1.755-2.996c-.493.35-.81.742-.953 1.175zm8.096 5.458c.168-.454.134-.884-.103-1.288s-.551-.65-.944-.738c-.394-.088-.998-.032-1.812.165l1.826 3.116c.52-.382.864-.8 1.033-1.255z"/>
        <path fill="#F7DE8C" d="M48.314 37.889l-10.356 6.063L22.8 18.063 33.155 12z"/>
        <g fill="#FFF">
            <path d="M39.602 42.544l-.863.505-15.24-26.027.864-.505zM46.866 38.03l-.863.506-15.24-26.027.864-.505z"/>
        </g>
        <path fill="#256238" d="M67.301 47.16L9.363 58.3 3.699 28.84 61.637 17.7z"/>
        <path fill="#9DDAB0" d="M11.064 54.288L7 33.1a2.158 2.158 0 0 0 1.709-2.527L58.414 21a2.154 2.154 0 0 0 2.522 1.712L65 43.9a2.158 2.158 0 0 0-1.709 2.527L13.586 56a2.154 2.154 0 0 0-2.522-1.712z"/>
        <g fill="#256238" transform="translate(12 25)">
            <ellipse cx="24.485" cy="12.538" rx="10.297" ry="7.979" transform="rotate(-100.883 24.485 12.538)"/>
            <ellipse cx="47.11" cy="8.273" rx="1.84" ry="1.805"/>
            <ellipse cx="1.863" cy="16.805" rx="1.84" ry="1.805"/>
        </g>
        <path fill="#9DDAB0" d="M37.38 46l-.27-1.475c-1.784.167-3.488-.249-5.11-1.247l1.077-2.041c1.25.766 2.46 1.128 3.633 1.086l-.714-3.92c-1.51-.071-2.653-.336-3.431-.792-.778-.457-1.273-1.268-1.485-2.434-.213-1.165-.001-2.196.637-3.094.637-.898 1.569-1.505 2.796-1.824l-.185-1.01L35.553 29l.188 1.03c1.423-.176 2.843.06 4.259.709l-.907 2.111c-.958-.462-1.94-.667-2.951-.617l.692 3.799.057-.012c1.534.067 2.702.34 3.504.819.803.48 1.311 1.31 1.526 2.488.214 1.179-.007 2.22-.663 3.12-.657.902-1.629 1.518-2.92 1.85l.266 1.454-1.225.249zm-3.727-12.77c-.27.37-.364.78-.282 1.231.082.452.275.783.578.993.302.212.834.365 1.594.463l-.637-3.496c-.565.17-.983.44-1.253.81zm5.644 8.044c.3-.382.409-.809.323-1.28-.086-.472-.294-.818-.625-1.037-.332-.22-.903-.372-1.712-.46l.662 3.638c.6-.191 1.05-.479 1.352-.861z"/>
        <path fill="#E2B92D" d="M24 64.05C24 66.784 18.627 69 12 69S0 66.784 0 64.05V60h24v4.05z"/>
        <ellipse cx="12" cy="60" fill="#F7DE8C" rx="12" ry="5"/>
        <g fill="#DC8744">
            <path d="M11.539 56.125c-5.75 0-10.411 1.762-10.411 3.935s4.661 3.935 10.41 3.935c5.75 0 10.412-1.762 10.412-3.935s-4.662-3.935-10.411-3.935zm0 7.433c-5.111 0-9.254-1.566-9.254-3.498 0-1.932 4.143-3.498 9.254-3.498 5.11 0 9.254 1.566 9.254 3.498 0 1.932-4.143 3.498-9.254 3.498z"/>
            <path d="M11.158 62.778V62.3c-1.586-.06-3.01-.299-4.269-.714l1.267-.57c.971.319 1.97.509 3.002.57v-1.272c-1.308-.118-2.265-.274-2.873-.466-.607-.192-.91-.478-.91-.856s.348-.687 1.049-.928c.7-.24 1.611-.371 2.734-.393v-.328h1.11v.334c1.272.035 2.475.2 3.609.492l-1.129.604a12.05 12.05 0 0 0-2.48-.38v1.232h.052c1.33.118 2.307.278 2.931.479.626.2.938.493.938.875 0 .383-.359.694-1.076.935-.718.24-1.665.371-2.845.393v.472h-1.11zm-1.225-4.233c-.295.099-.442.221-.442.368 0 .146.116.262.348.347.23.085.67.167 1.319.246V58.37c-.522.018-.93.076-1.225.174zm3.653 2.876c.324-.1.486-.227.486-.38s-.127-.275-.381-.364c-.256-.09-.73-.174-1.423-.253v1.18c.554-.021.993-.083 1.318-.183z"/>
        </g>
        <path fill="#E2B92D" d="M24 59.05C24 61.784 18.627 64 12 64S0 61.784 0 59.05V55h24v4.05z"/>
        <ellipse cx="12" cy="55" fill="#F7DE8C" rx="12" ry="5"/>
        <g fill="#DC8744">
            <path d="M11.539 51.013c-5.75 0-10.411 1.762-10.411 3.935s4.661 3.934 10.41 3.934c5.75 0 10.412-1.761 10.412-3.934s-4.662-3.935-10.411-3.935zm0 7.432c-5.111 0-9.254-1.566-9.254-3.497 0-1.932 4.143-3.498 9.254-3.498 5.11 0 9.254 1.566 9.254 3.498 0 1.931-4.143 3.497-9.254 3.497z"/>
            <path d="M11.158 57.666v-.479c-1.586-.061-3.01-.3-4.269-.715l1.267-.57c.971.32 1.97.51 3.002.57V55.2c-1.308-.118-2.265-.273-2.873-.465-.607-.193-.91-.478-.91-.856s.348-.688 1.049-.928c.7-.24 1.611-.372 2.734-.394v-.328h1.11v.335c1.272.035 2.475.199 3.609.492l-1.129.603a12.05 12.05 0 0 0-2.48-.38v1.232h.052c1.33.119 2.307.278 2.931.48.626.2.938.492.938.875 0 .382-.359.694-1.076.934-.718.24-1.665.372-2.845.394v.472h-1.11zm-1.225-4.233c-.295.098-.442.22-.442.367s.116.263.348.348c.23.085.67.167 1.319.245V53.26c-.522.018-.93.076-1.225.174zm3.653 2.875c.324-.1.486-.227.486-.38s-.127-.274-.381-.364c-.256-.09-.73-.173-1.423-.252v1.18c.554-.022.993-.083 1.318-.184z"/>
        </g>
        <path fill="#E2B92D" d="M24 54.05C24 56.784 18.627 59 12 59S0 56.784 0 54.05V50h24v4.05z"/>
        <ellipse cx="12" cy="50" fill="#F7DE8C" rx="12" ry="5"/>
        <g fill="#DC8744">
            <path d="M11.539 46.036c-5.75 0-10.411 1.762-10.411 3.935s4.661 3.935 10.41 3.935c5.75 0 10.412-1.762 10.412-3.935s-4.662-3.935-10.411-3.935zm0 7.432c-5.111 0-9.254-1.565-9.254-3.497s4.143-3.498 9.254-3.498c5.11 0 9.254 1.566 9.254 3.498 0 1.932-4.143 3.497-9.254 3.497z"/>
            <path d="M11.158 52.69v-.48c-1.586-.06-3.01-.3-4.269-.714l1.267-.57c.971.318 1.97.508 3.002.57v-1.273c-1.308-.118-2.265-.273-2.873-.465-.607-.193-.91-.478-.91-.856s.348-.687 1.049-.928c.7-.24 1.611-.371 2.734-.393v-.328h1.11v.334c1.272.035 2.475.199 3.609.492l-1.129.603a12.05 12.05 0 0 0-2.48-.38v1.233h.052c1.33.118 2.307.278 2.931.479.626.2.938.493.938.875 0 .383-.359.694-1.076.935-.718.24-1.665.371-2.845.393v.472h-1.11zm-1.225-4.234c-.295.098-.442.22-.442.367s.116.263.348.348c.23.085.67.167 1.319.246v-1.135c-.522.018-.93.076-1.225.174zm3.653 2.876c.324-.1.486-.227.486-.38s-.127-.275-.381-.364c-.256-.09-.73-.174-1.423-.253v1.18c.554-.021.993-.083 1.318-.183z"/>
        </g>
        <path fill="#E2B92D" d="M24 49.05C24 51.784 18.627 54 12 54S0 51.784 0 49.05V45h24v4.05z"/>
        <ellipse cx="12" cy="45" fill="#F7DE8C" rx="12" ry="5"/>
        <g fill="#B38A00">
            <path d="M11.539 40.06c-5.75 0-10.411 1.76-10.411 3.934 0 2.173 4.661 3.935 10.41 3.935 5.75 0 10.412-1.762 10.412-3.935s-4.662-3.935-10.411-3.935zm0 7.432c-5.111 0-9.254-1.566-9.254-3.498 0-1.932 4.143-3.498 9.254-3.498 5.11 0 9.254 1.566 9.254 3.498 0 1.932-4.143 3.498-9.254 3.498z"/>
            <path d="M11.158 46.712v-.479c-1.586-.06-3.01-.299-4.269-.714l1.267-.57c.971.319 1.97.508 3.002.57v-1.272c-1.308-.118-2.265-.274-2.873-.466-.607-.192-.91-.478-.91-.856s.348-.687 1.049-.928c.7-.24 1.611-.371 2.734-.393v-.328h1.11v.334c1.272.035 2.475.2 3.609.492l-1.129.604a12.05 12.05 0 0 0-2.48-.38v1.232h.052c1.33.118 2.307.278 2.931.479.626.201.938.493.938.875 0 .383-.359.695-1.076.935-.718.24-1.665.371-2.845.393v.472h-1.11zM9.933 42.48c-.295.098-.442.221-.442.368 0 .146.116.262.348.347.23.085.67.167 1.319.246v-1.135c-.522.018-.93.076-1.225.174zm3.653 2.876c.324-.1.486-.227.486-.38s-.127-.275-.381-.364c-.256-.09-.73-.174-1.423-.253v1.18c.554-.021.993-.083 1.318-.183z"/>
        </g>
        <path fill="#E2B92D" d="M49 64.05C49 66.784 43.627 69 37 69s-12-2.216-12-4.95V60h24v4.05z"/>
        <ellipse cx="37" cy="60" fill="#F7DE8C" rx="12" ry="5"/>
        <g fill="#DC8744">
            <path d="M37.523 56.125c-5.75 0-10.411 1.762-10.411 3.935s4.66 3.935 10.41 3.935 10.411-1.762 10.411-3.935-4.66-3.935-10.41-3.935zm0 7.433c-5.111 0-9.255-1.566-9.255-3.498 0-1.932 4.144-3.498 9.255-3.498 5.11 0 9.254 1.566 9.254 3.498 0 1.932-4.144 3.498-9.254 3.498z"/>
            <path d="M37.141 62.778V62.3c-1.585-.06-3.009-.299-4.268-.714l1.266-.57c.972.319 1.972.509 3.002.57v-1.272c-1.307-.118-2.265-.274-2.872-.466-.607-.192-.91-.478-.91-.856s.348-.687 1.049-.928c.7-.24 1.61-.371 2.733-.393v-.328h1.11v.334c1.272.035 2.475.2 3.61.492l-1.129.604a12.05 12.05 0 0 0-2.48-.38v1.232h.052c1.33.118 2.307.278 2.93.479.626.2.939.493.939.875 0 .383-.36.694-1.076.935-.718.24-1.665.371-2.846.393v.472h-1.11zm-1.224-4.233c-.295.099-.442.221-.442.368 0 .146.116.262.348.347.23.085.67.167 1.318.246V58.37c-.52.018-.929.076-1.224.174zm3.653 2.876c.323-.1.486-.227.486-.38s-.127-.275-.381-.364c-.256-.09-.73-.174-1.424-.253v1.18c.555-.021.994-.083 1.32-.183z"/>
        </g>
        <path fill="#E2B92D" d="M49 59.05C49 61.784 43.627 64 37 64s-12-2.216-12-4.95V55h24v4.05z"/>
        <ellipse cx="37" cy="55" fill="#F7DE8C" rx="12" ry="5"/>
        <g fill="#B38A00">
            <path d="M37.523 51.013c-5.75 0-10.411 1.762-10.411 3.935s4.66 3.934 10.41 3.934 10.411-1.761 10.411-3.934-4.66-3.935-10.41-3.935zm0 7.432c-5.111 0-9.255-1.566-9.255-3.497 0-1.932 4.144-3.498 9.255-3.498 5.11 0 9.254 1.566 9.254 3.498 0 1.931-4.144 3.497-9.254 3.497z"/>
            <path d="M37.141 57.666v-.479c-1.585-.061-3.009-.3-4.268-.715l1.266-.57c.972.32 1.972.51 3.002.57V55.2c-1.307-.118-2.265-.273-2.872-.465-.607-.193-.91-.478-.91-.856s.348-.688 1.049-.928c.7-.24 1.61-.372 2.733-.394v-.328h1.11v.335c1.272.035 2.475.199 3.61.492l-1.129.603a12.05 12.05 0 0 0-2.48-.38v1.232h.052c1.33.119 2.307.278 2.93.48.626.2.939.492.939.875 0 .382-.36.694-1.076.934-.718.24-1.665.372-2.846.394v.472h-1.11zm-1.224-4.233c-.295.098-.442.22-.442.367s.116.263.348.348c.23.085.67.167 1.318.245V53.26c-.52.018-.929.076-1.224.174zm3.653 2.875c.323-.1.486-.227.486-.38s-.127-.274-.381-.364c-.256-.09-.73-.173-1.424-.252v1.18c.555-.022.994-.083 1.32-.184z"/>
        </g>
    </g>
</svg>
