<svg xmlns="http://www.w3.org/2000/svg" width="52" height="71" viewBox="0 0 52 71">
    <g fill="none" fill-rule="nonzero">
        <path fill="#553323" stroke="#774836" stroke-linejoin="round" stroke-width="2" d="M1 1h49v66H1z"/>
        <path fill="#000" d="M3 67h9v4H3zM39 67h9v4h-9z"/>
        <path fill="#875A48" stroke="#774836" stroke-linejoin="round" stroke-width="2" d="M1 44h25v23H1zM26 44h25v23H26z"/>
        <path fill="#553323" stroke="#774836" stroke-linejoin="round" stroke-width="2" d="M1 16h49v15H1z"/>
        <path fill="#B38A00" d="M31 55c-.552 0-1-.536-1-1.2v-3.6c0-.664.448-1.2 1-1.2s1 .536 1 1.2v3.6c0 .664-.448 1.2-1 1.2zM19 55c-.552 0-1-.536-1-1.2v-3.6c0-.664.448-1.2 1-1.2s1 .536 1 1.2v3.6c0 .664-.448 1.2-1 1.2z"/>
        <path fill="#8F8F8F" d="M43 3h4v11h-4z"/>
        <path fill="#003B5C" d="M39 3h4v11h-4z"/>
        <path fill="#8A0000" d="M35 3h4v11h-4z"/>
        <path fill="#B38A00" d="M32 3h4v11h-4z"/>
        <path fill="#215732" d="M45 18h4v11h-4z"/>
        <path fill="#8A0000" d="M41 18h4v11h-4z"/>
        <path fill="#215732" d="M38 18h4v11h-4z"/>
        <path fill="#8F8F8F" d="M34 18h4v11h-4z"/>
        <path fill="#B38A00" d="M30 18h4v11h-4z"/>
        <path fill="#003B5C" d="M27 18h4v11h-4z"/>
        <path fill="#8A0000" d="M6 26h11v4H6z"/>
        <path fill="#CD0101" d="M6 22h11v4H6zM35 39h11v4H35z"/>
        <path fill="#8A0000" d="M35 35h11v4H35z"/>
        <path fill="#215732" d="M27.5 15H24l3.5-10H31z"/>
    </g>
</svg>
