<svg xmlns="http://www.w3.org/2000/svg" width="70" height="70" viewBox="0 0 70 70">
    <g fill="none" fill-rule="nonzero">
        <g fill="#DA8C36">
            <path d="M7.5 67.958v-7.1c0-1.065-.6-1.775-1.5-1.775s-1.5.71-1.5 1.775v7.1h3zM64.5 67.958v-7.1c0-1.065-.6-1.775-1.5-1.775s-1.5.71-1.5 1.775v7.1h3z"/>
        </g>
        <g fill="#C97629">
            <path d="M61.5 59v3.6H63V68h1.5v-9zM4.5 59v3.6H6V68h1.5v-9z"/>
        </g>
        <path fill="#B2B2B2" d="M36 9c-1.2 0-2-.6-2-1.5v-6c0-.9.8-1.5 2-1.5s2 .6 2 1.5v6c0 .9-.8 1.5-2 1.5z"/>
        <path fill="#DFDFDF" d="M16 67V15.973c0-.957.633-1.595 1.583-1.595H25.5c.95 0 1.583-.637 1.583-1.594v-3.19c0-.956.634-1.594 1.584-1.594h12.666c.95 0 1.584.638 1.584 1.595v3.189c0 .957.633 1.594 1.583 1.594h7.917c.95 0 1.583.638 1.583 1.595V67H16z"/>
        <path fill="#404040" d="M68.41 70H1.59C.637 70 0 69.2 0 68s.636-2 1.59-2h66.82c.954 0 1.59.8 1.59 2s-.636 2-1.59 2z"/>
        <path fill="#418055" d="M68 55.75c0 2.975-2.167 5.25-5 5.25s-5-2.275-5-5.25S63 47 63 47s5 5.775 5 8.75z"/>
        <path fill="#215732" d="M65.59 51c.481 1.129.803 2.097.803 2.903 0 3.065-2.09 5.484-4.822 5.484-.964 0-1.767-.323-2.571-.806.804 1.451 2.41 2.419 4.179 2.419C65.91 61 68 58.903 68 56.161c0-1.29-1.286-3.387-2.41-5.161z"/>
        <path fill="#418055" d="M11 55.75C11 58.725 8.833 61 6 61s-5-2.275-5-5.25S6 47 6 47s5 5.775 5 8.75z"/>
        <path fill="#4C9CD6" d="M31 57h9v9h-9zM25.875 63.628h-3.25c-.975 0-1.625-.65-1.625-1.625v-3.25c0-.975.65-1.625 1.625-1.625h3.25c.975 0 1.625.65 1.625 1.625v3.25c0 .975-.65 1.625-1.625 1.625z"/>
        <path fill="#3689C9" d="M21 58.5c0-.823.774-1.372 1.186-1.372h4.04c.758 0 1.274.549 1.274 1.372H21z"/>
        <path fill="#4C9CD6" d="M48.375 63.628h-3.25c-.975 0-1.625-.65-1.625-1.625v-3.25c0-.975.65-1.625 1.625-1.625h3.25c.975 0 1.625.65 1.625 1.625v3.25c0 .975-.65 1.625-1.625 1.625z"/>
        <path fill="#3689C9" d="M43.5 58.5c0-.823.774-1.372 1.186-1.372h4.04c.758 0 1.274.549 1.274 1.372h-6.5z"/>
        <path fill="#215732" d="M8.59 51c.481 1.129.803 2.097.803 2.903 0 3.065-2.09 5.484-4.822 5.484-.964 0-1.767-.323-2.571-.806C2.804 60.032 4.41 61 6.179 61 8.91 61 11 58.903 11 56.161c0-1.29-1.286-3.387-2.41-5.161z"/>
        <path fill="#DFDFDF" d="M42.5 8h-14c-1.05 0-1.75.64-1.75 1.6v3.2c0 .96-.7 1.6-1.75 1.6h21c-1.05 0-1.75-.64-1.75-1.6V9.6c0-.96-.7-1.6-1.75-1.6z"/>
        <path fill="#B2B2B2" d="M44.2 12.8V9.6c0-.96-.72-1.6-1.8-1.6H37c1.08 0 1.8.64 1.8 1.6v3.2c0 .96.72 1.6 1.8 1.6H46c-1.08 0-1.8-.64-1.8-1.6z"/>
        <path fill="#4C9CD6" d="M48.389 25H22.61C21.644 25 21 24.4 21 23.5v-3c0-.9.645-1.5 1.611-1.5H48.39c.967 0 1.611.6 1.611 1.5v3c0 .9-.644 1.5-1.611 1.5z"/>
        <g fill="#70B7E5">
            <path d="M33.195 24.898h-3.183l4.774-5.818h3.183zM41.151 24.898h-6.365l4.774-5.818h6.365z"/>
        </g>
        <path fill="#3689C9" d="M50 20H21c0-.6.645-1 1.611-1H48.39c.967 0 1.611.4 1.611 1z"/>
        <g fill="#4C9CD6">
            <path d="M37.386 19.944l1.316-.895h-3.289l-1.315.895zM45.607 19.944l1.316-.895h-6.577l-1.316.895z"/>
        </g>
        <g>
            <path fill="#4C9CD6" d="M48.389 34.5H22.61C21.644 34.5 21 33.9 21 33v-3c0-.9.645-1.5 1.611-1.5H48.39c.967 0 1.611.6 1.611 1.5v3c0 .9-.644 1.5-1.611 1.5z"/>
            <g fill="#70B7E5">
                <path d="M33.195 34.398h-3.183l4.774-5.819h3.183zM41.151 34.398h-6.365l4.774-5.819h6.365z"/>
            </g>
            <path fill="#3689C9" d="M50 29.5H21c0-.6.645-1 1.611-1H48.39c.967 0 1.611.4 1.611 1z"/>
            <g fill="#4C9CD6">
                <path d="M37.386 29.444l1.316-.895h-3.289l-1.315.895zM45.607 29.444l1.316-.895h-6.577l-1.316.895z"/>
            </g>
        </g>
        <g>
            <path fill="#4C9CD6" d="M48.389 44H22.61C21.644 44 21 43.4 21 42.5v-3c0-.9.645-1.5 1.611-1.5H48.39c.967 0 1.611.6 1.611 1.5v3c0 .9-.644 1.5-1.611 1.5z"/>
            <g fill="#70B7E5">
                <path d="M33.195 43.898h-3.183l4.774-5.819h3.183zM41.151 43.898h-6.365l4.774-5.819h6.365z"/>
            </g>
            <path fill="#3689C9" d="M50 39H21c0-.6.645-1 1.611-1H48.39c.967 0 1.611.4 1.611 1z"/>
            <g fill="#4C9CD6">
                <path d="M37.386 38.944l1.316-.895h-3.289l-1.315.895zM45.607 38.944l1.316-.895h-6.577l-1.316.895z"/>
            </g>
        </g>
        <g>
            <path fill="#4C9CD6" d="M48.389 53.5H22.61C21.644 53.5 21 52.9 21 52v-3c0-.9.645-1.5 1.611-1.5H48.39c.967 0 1.611.6 1.611 1.5v3c0 .9-.644 1.5-1.611 1.5z"/>
            <g fill="#70B7E5">
                <path d="M33.195 53.398h-3.183l4.774-5.819h3.183zM41.151 53.398h-6.365l4.774-5.819h6.365z"/>
            </g>
            <path fill="#3689C9" d="M50 48.5H21c0-.6.645-1 1.611-1H48.39c.967 0 1.611.4 1.611 1z"/>
            <g fill="#4C9CD6">
                <path d="M37.386 48.444l1.316-.895h-3.289l-1.315.895zM45.607 48.444l1.316-.895h-6.577l-1.316.895z"/>
            </g>
        </g>
        <g fill="#70B7E5">
            <path d="M35.2 57L31 62.4V66l7-9zM40 57l-7 9h5.6l1.4-1.8z"/>
        </g>
        <g fill="#1470B8" transform="translate(34 61)">
            <ellipse cx="2" cy=".51" rx="1" ry="1"/>
            <ellipse cx="1" cy=".51" rx="1" ry="1"/>
        </g>
    </g>
</svg>
