<svg xmlns="http://www.w3.org/2000/svg" width="52" height="70" viewBox="0 0 52 70">
    <g fill="none" fill-rule="nonzero">
        <path fill="#215732" d="M46.643 70H5.357C2.675 70 .5 67.844.5 65.185V9.815C.5 7.155 2.675 5 5.357 5h41.286C49.325 5 51.5 7.156 51.5 9.815v55.37c0 2.66-2.175 4.815-4.857 4.815z"/>
        <path fill="#FAFAFA" d="M47.278 8H5.722C5.047 8 4.5 8.541 4.5 9.208v55.584c0 .667.547 1.208 1.222 1.208h33l9.778-9.667V9.208C48.5 8.541 47.953 8 47.278 8z"/>
        <path fill="#DFDFDF" d="M33.125 5h-3.562V3.75C29.563 1.679 27.968 0 26 0c-1.967 0-3.562 1.679-3.562 3.75V5h-3.563C17.563 5 16.5 6.12 16.5 7.5V10h19V7.5c0-1.38-1.063-2.5-2.375-2.5zM26 5c-.656 0-1.187-.56-1.187-1.25S25.344 2.5 26 2.5s1.188.56 1.188 1.25S26.656 5 26 5z"/>
        <path fill="#B2B2B2" d="M35.278 10H15.722c-.675 0-1.222-.448-1.222-1s.547-1 1.222-1h19.556c.675 0 1.222.448 1.222 1s-.547 1-1.222 1z"/>
        <path fill="#D1D1D1" d="M17.25 48h-7.5c-.69 0-1.25-.448-1.25-1s.56-1 1.25-1h7.5c.69 0 1.25.448 1.25 1s-.56 1-1.25 1z"/>
        <g fill="#DFDFDF">
            <path d="M41.23 48.369H21.808c-.67 0-1.214-.518-1.214-1.155 0-.638.543-1.156 1.214-1.156h19.42c.67 0 1.214.518 1.214 1.156 0 .638-.543 1.155-1.214 1.155zM29.091 55.299H21.81c-.67 0-1.214-.517-1.214-1.155s.543-1.155 1.214-1.155h7.282c.67 0 1.214.517 1.214 1.155s-.543 1.155-1.214 1.155zM31.519 59.919h-9.71c-.67 0-1.214-.517-1.214-1.155s.543-1.155 1.214-1.155h9.71c.67 0 1.214.517 1.214 1.155s-.544 1.155-1.214 1.155z"/>
        </g>
        <g fill="#D1D1D1">
            <path d="M16.935 28.315H9.753c-.661 0-1.197-.512-1.197-1.144 0-.632.536-1.144 1.197-1.144h7.182c.66 0 1.197.512 1.197 1.144 0 .632-.536 1.144-1.197 1.144zM31.298 32.893h-3.59c-.662 0-1.198-.513-1.198-1.145s.536-1.144 1.197-1.144h3.591c.661 0 1.197.512 1.197 1.144 0 .632-.536 1.145-1.197 1.145z"/>
        </g>
        <g fill="#DFDFDF">
            <path d="M41.23 32.893h-4.856c-.67 0-1.214-.513-1.214-1.145s.544-1.144 1.214-1.144h4.855c.67 0 1.214.512 1.214 1.144 0 .632-.543 1.145-1.214 1.145zM41.23 28.315H21.808c-.67 0-1.214-.512-1.214-1.144 0-.632.543-1.144 1.214-1.144h19.42c.67 0 1.214.512 1.214 1.144 0 .632-.543 1.144-1.214 1.144z"/>
        </g>
        <path fill="#D1D1D1" d="M42.3 21h-9.6c-.663 0-1.2-.448-1.2-1s.537-1 1.2-1h9.6c.663 0 1.2.448 1.2 1s-.537 1-1.2 1z"/>
        <path fill="#DFDFDF" d="M27.25 21h-2.5c-.69 0-1.25-.448-1.25-1s.56-1 1.25-1h2.5c.69 0 1.25.448 1.25 1s-.56 1-1.25 1z"/>
        <g fill="#D1D1D1">
            <path d="M41.233 16.61h-7.261c-.669 0-1.21-.555-1.21-1.24 0-.684.541-1.24 1.21-1.24h7.261c.668 0 1.21.556 1.21 1.24 0 .685-.542 1.24-1.21 1.24zM21.87 38.927H9.766c-.668 0-1.21-.555-1.21-1.24 0-.684.542-1.24 1.21-1.24h12.102c.669 0 1.21.556 1.21 1.24 0 .685-.541 1.24-1.21 1.24z"/>
        </g>
        <g fill="#DFDFDF">
            <path d="M41.233 37.933H26.71c-.668 0-1.21-.512-1.21-1.144 0-.632.542-1.145 1.21-1.145h14.523c.668 0 1.21.513 1.21 1.145s-.542 1.144-1.21 1.144zM23.08 33.356H9.767c-.668 0-1.21-.513-1.21-1.145s.542-1.144 1.21-1.144H23.08c.668 0 1.21.512 1.21 1.144 0 .632-.542 1.145-1.21 1.145z"/>
        </g>
        <path fill="#D1D1D1" d="M29.3 43h-9.6c-.663 0-1.2-.448-1.2-1s.537-1 1.2-1h9.6c.663 0 1.2.448 1.2 1s-.537 1-1.2 1z"/>
        <g fill="#DFDFDF">
            <path d="M41.233 42.977h-7.261c-.669 0-1.21-.44-1.21-.98 0-.543.541-.982 1.21-.982h7.261c.668 0 1.21.44 1.21.981 0 .542-.542.981-1.21.981zM14.608 42.977H9.767c-.668 0-1.21-.44-1.21-.98 0-.543.542-.982 1.21-.982h4.84c.67 0 1.211.44 1.211.981 0 .542-.542.981-1.21.981z"/>
        </g>
        <path fill="#B4E1FA" d="M13.5 62c-2.757 0-5-2.243-5-5s2.243-5 5-5 5 2.243 5 5-2.243 5-5 5zm0-7.5A2.502 2.502 0 0 0 11 57c0 1.379 1.121 2.5 2.5 2.5S16 58.379 16 57s-1.121-2.5-2.5-2.5z"/>
        <path fill="#DFDFDF" d="M38.5 66v-8.75c0-.69.56-1.25 1.25-1.25h8.75l-10 10z"/>
    </g>
</svg>
