<svg xmlns="http://www.w3.org/2000/svg" width="70" height="70" viewBox="0 0 70 70">
    <g fill="none" fill-rule="nonzero">
        <path fill="#DAC272" d="M54.64 62.454c3.003 1.31 11.3 5.077 14.249 6.278.327.164 1.092.11.982-.6-.655-7.098-4.64-47.769-5.35-54.975-.109-1.037-.436-1.201-1.2-1.474-2.348-.874-8.026-2.894-10.373-3.713-.82-.327-1.31-.327-2.184 0-3.658 1.038-15.231 4.586-15.231 4.586S23.468 8.898 19.7 7.861c-.82-.273-1.256-.327-2.184.055-2.402.764-7.97 2.839-10.373 3.712-.982.382-1.091.82-1.2 1.474C5.178 20.145.811 60.98.047 68.132c-.055.818.655.764 1.31.545 3.275-1.31 11.573-4.913 14.521-6.114.6-.273 1.201-.437 2.184 0 3.33 1.365 13.102 5.787 16.323 7.097.71.328 1.365.382 2.184 0 3.22-1.365 12.665-5.732 15.832-7.152.6-.327 1.528-.382 2.238-.054z"/>
        <path fill="#EEE7B7" d="M18.991 7.698c-.437-.055-.873 0-1.474.218-2.402.764-7.97 2.839-10.372 3.712-.983.382-1.092.82-1.202 1.474C5.18 20.145.812 60.98.048 68.132c-.055.818.655.764 1.31.545 3.275-1.31 11.573-4.913 14.521-6.114.437-.164.82-.328 1.42-.218L18.99 7.698zm32.592 0c-.218.054-.437.109-.71.218-3.658 1.092-14.794 4.476-15.286 4.64v57.322c.328 0 .71-.109 1.092-.273 3.221-1.364 12.666-5.732 15.832-7.151.218-.11.491-.164.764-.219L51.583 7.698z"/>
        <path fill="#B38A00" d="M25.542 65.784l9.554-9.554 9.717 9.718c2.02-.928 3.986-1.856 5.569-2.566l-34.885-34.83 16.924-16.924c-1.747-.546-4.04-1.2-6.224-1.856l-14.74 14.74-6.06-6.06c-.218 2.075-.49 4.586-.764 7.37l26.423 26.423-11.082 11.082c1.528.655 3.548 1.529 5.568 2.457z"/>
        <path fill="#B38A00" d="M18.445 25.604l.273-8.353-7.26 7.207-6.06-6.006c-.219 2.075-.492 4.586-.765 7.37l13.43 13.43.218-7.916-2.73-2.73 2.894-3.002zm17.088 31.118l9.226 9.226c2.02-.928 3.985-1.856 5.568-2.566L35.533 48.587v8.135z"/>
        <path fill="#8A0000" d="M43.722 0c8.734 0 15.831 7.097 15.831 15.886 0 .164-.054 4.259-1.419 7.152-3.221 7.48-10.973 15.395-13.539 17.96-.655.601-.928.71-1.747-.054-2.62-2.566-10.263-10.372-13.484-17.797-1.147-2.184-1.474-6.879-1.474-7.26C27.89 7.096 34.987 0 43.722 0z"/>
        <path fill="#FFF" d="M43.722 7.643a8.178 8.178 0 0 0-8.19 8.189 8.178 8.178 0 0 0 8.19 8.189 8.178 8.178 0 0 0 8.188-8.19 8.178 8.178 0 0 0-8.188-8.188zm0 13.102a4.893 4.893 0 0 1-4.914-4.913 4.893 4.893 0 0 1 4.914-4.913 4.893 4.893 0 0 1 4.913 4.913 4.893 4.893 0 0 1-4.913 4.913z"/>
    </g>
</svg>
