<svg xmlns="http://www.w3.org/2000/svg" width="130" height="131" viewBox="0 0 130 131">
    <g fill="none" fill-rule="evenodd">
        <path fill="#ED6655" d="M102.916 8.125H27.082a2.709 2.709 0 0 0-2.708 2.71V127.29a2.705 2.705 0 0 0 2.708 2.705h75.834a2.706 2.706 0 0 0 2.706-2.705V10.834a2.71 2.71 0 0 0-2.706-2.709z"/>
        <path fill="#4FC2E9" d="M48.748 18.96H37.916a2.71 2.71 0 0 0-2.71 2.709v16.25a2.707 2.707 0 0 0 2.71 2.705h10.832a2.705 2.705 0 0 0 2.708-2.706v-16.25a2.709 2.709 0 0 0-2.708-2.709z"/>
        <path fill="#E6E9ED" d="M48.748 18.96H37.916a2.71 2.71 0 0 0-2.71 2.709v5.415h16.25v-5.415a2.709 2.709 0 0 0-2.708-2.71z"/>
        <path fill="#4FC2E9" d="M70.417 18.96H59.581a2.709 2.709 0 0 0-2.708 2.709v16.25a2.705 2.705 0 0 0 2.708 2.705h10.836a2.706 2.706 0 0 0 2.705-2.706v-16.25a2.71 2.71 0 0 0-2.705-2.709z"/>
        <path fill="#E6E9ED" d="M70.417 18.96H59.581a2.709 2.709 0 0 0-2.708 2.709v5.415h16.25v-5.415a2.71 2.71 0 0 0-2.706-2.71z"/>
        <path fill="#4FC2E9" d="M92.078 18.96h-10.83a2.707 2.707 0 0 0-2.706 2.709v16.25a2.704 2.704 0 0 0 2.705 2.705h10.83c1.5 0 2.714-1.21 2.714-2.706v-16.25a2.711 2.711 0 0 0-2.713-2.709z"/>
        <path fill="#E6E9ED" d="M92.078 18.96h-10.83a2.707 2.707 0 0 0-2.706 2.709v5.415h16.25v-5.415a2.711 2.711 0 0 0-2.714-2.71z"/>
        <path fill="#4FC2E9" d="M48.748 46.043H37.916a2.707 2.707 0 0 0-2.71 2.706v16.25a2.71 2.71 0 0 0 2.71 2.709h10.832a2.709 2.709 0 0 0 2.708-2.71v-16.25a2.705 2.705 0 0 0-2.708-2.705z"/>
        <path fill="#E6E9ED" d="M48.748 46.043H37.916a2.707 2.707 0 0 0-2.71 2.706v5.419h16.25v-5.42a2.705 2.705 0 0 0-2.708-2.705z"/>
        <path fill="#4FC2E9" d="M70.417 46.043H59.581a2.706 2.706 0 0 0-2.708 2.706v16.25a2.709 2.709 0 0 0 2.708 2.709h10.836a2.71 2.71 0 0 0 2.705-2.71v-16.25a2.706 2.706 0 0 0-2.705-2.705z"/>
        <path fill="#E6E9ED" d="M70.417 46.043H59.581a2.706 2.706 0 0 0-2.708 2.706v5.419h16.25v-5.42a2.706 2.706 0 0 0-2.706-2.705z"/>
        <path fill="#4FC2E9" d="M92.078 46.043h-10.83a2.704 2.704 0 0 0-2.706 2.706v16.25c0 1.495 1.21 2.709 2.705 2.709h10.83c1.5 0 2.714-1.214 2.714-2.71v-16.25a2.708 2.708 0 0 0-2.713-2.705z"/>
        <path fill="#E6E9ED" d="M92.078 46.043h-10.83a2.704 2.704 0 0 0-2.706 2.706v5.419h16.25v-5.42a2.708 2.708 0 0 0-2.714-2.705z"/>
        <path fill="#4FC2E9" d="M48.748 73.123H37.916a2.71 2.71 0 0 0-2.71 2.71v16.249a2.71 2.71 0 0 0 2.71 2.71h10.832a2.709 2.709 0 0 0 2.708-2.71v-16.25a2.709 2.709 0 0 0-2.708-2.71z"/>
        <path fill="#E6E9ED" d="M48.748 73.123H37.916a2.71 2.71 0 0 0-2.71 2.71v5.414h16.25v-5.415a2.709 2.709 0 0 0-2.708-2.71z"/>
        <path fill="#4FC2E9" d="M70.417 73.123H59.581a2.709 2.709 0 0 0-2.708 2.71v16.249a2.709 2.709 0 0 0 2.708 2.71h10.836a2.71 2.71 0 0 0 2.705-2.71v-16.25a2.71 2.71 0 0 0-2.705-2.71z"/>
        <path fill="#E6E9ED" d="M70.417 73.123H59.581a2.709 2.709 0 0 0-2.708 2.71v5.414h16.25v-5.415a2.71 2.71 0 0 0-2.706-2.71z"/>
        <path fill="#4FC2E9" d="M92.078 73.123h-10.83a2.707 2.707 0 0 0-2.706 2.71v16.249c0 1.495 1.21 2.71 2.705 2.71h10.83c1.5 0 2.714-1.215 2.714-2.71v-16.25a2.711 2.711 0 0 0-2.713-2.71z"/>
        <path fill="#E6E9ED" d="M92.078 73.123h-10.83a2.707 2.707 0 0 0-2.706 2.71v5.414h16.25v-5.415a2.711 2.711 0 0 0-2.714-2.71z"/>
        <path fill="#4FC2E9" d="M48.748 100.207H37.916a2.71 2.71 0 0 0-2.71 2.71v16.249a2.707 2.707 0 0 0 2.71 2.705h10.832a2.705 2.705 0 0 0 2.708-2.705v-16.25a2.709 2.709 0 0 0-2.708-2.71z"/>
        <path fill="#E6E9ED" d="M48.748 100.207H37.916a2.71 2.71 0 0 0-2.71 2.71v5.414h16.25v-5.415a2.709 2.709 0 0 0-2.708-2.71z"/>
        <path fill="#4FC2E9" d="M92.078 100.207h-10.83a2.707 2.707 0 0 0-2.706 2.71v16.249a2.704 2.704 0 0 0 2.705 2.705h10.83c1.5 0 2.714-1.21 2.714-2.705v-16.25a2.712 2.712 0 0 0-2.713-2.71z"/>
        <path fill="#E6E9ED" d="M92.078 100.207h-10.83a2.707 2.707 0 0 0-2.706 2.71v5.414h16.25v-5.415a2.712 2.712 0 0 0-2.714-2.71z"/>
        <path fill="#A85D5D" d="M119.166 129.996c-1.5 0-2.714-1.21-2.714-2.706v-16.25a2.71 2.71 0 1 1 5.42 0v16.25a2.706 2.706 0 0 1-2.706 2.706z"/>
        <path fill="#A0D468" d="M119.166 119.166c-5.975 0-10.839-4.86-10.839-10.834 0-2.535.948-8.823 2.476-14.564 2.3-8.656 4.88-12.52 8.363-12.52 3.483 0 6.061 3.864 8.362 12.52 1.524 5.74 2.468 12.029 2.468 14.564 0 5.974-4.86 10.834-10.83 10.834z"/>
        <path fill="#A85D5D" d="M10.832 129.996a2.705 2.705 0 0 1-2.707-2.706v-16.25a2.708 2.708 0 1 1 5.417 0v16.25a2.707 2.707 0 0 1-2.71 2.706z"/>
        <path fill="#A0D468" d="M10.832 119.166C4.86 119.166 0 114.306 0 108.332c0-2.535.944-8.823 2.47-14.564 2.3-8.656 4.88-12.52 8.362-12.52 3.484 0 6.062 3.864 8.363 12.52 1.526 5.74 2.472 12.029 2.472 14.564 0 5.974-4.86 10.834-10.835 10.834z"/>
        <path fill="#656D78" d="M105.622 0H24.374a2.709 2.709 0 0 0-2.707 2.71v8.124a2.709 2.709 0 0 0 2.707 2.71h81.248a2.707 2.707 0 0 0 2.705-2.71V2.71c0-1.496-1.21-2.71-2.705-2.71z"/>
        <g fill="#434A54">
            <path d="M32.499 8.125a2.709 2.709 0 0 0-2.708 2.71v2.71h5.415v-2.71a2.708 2.708 0 0 0-2.707-2.71zM43.331 8.125a2.709 2.709 0 0 0-2.707 2.71v2.71h5.417v-2.71a2.71 2.71 0 0 0-2.71-2.71zM54.166 8.125a2.71 2.71 0 0 0-2.71 2.71v2.71h5.417v-2.71a2.709 2.709 0 0 0-2.707-2.71zM64.998 8.125a2.709 2.709 0 0 0-2.708 2.71v2.71h5.416v-2.71a2.709 2.709 0 0 0-2.708-2.71zM75.828 8.125a2.71 2.71 0 0 0-2.706 2.71v2.71h5.42v-2.71a2.711 2.711 0 0 0-2.714-2.71zM86.667 8.125a2.711 2.711 0 0 0-2.714 2.71v2.71h5.42v-2.71a2.71 2.71 0 0 0-2.706-2.71zM97.497 8.125a2.707 2.707 0 0 0-2.706 2.71v2.71h5.412v-2.71c0-1.496-1.21-2.71-2.706-2.71z"/>
        </g>
        <path fill="#F6BB42" d="M70.417 100.207H59.581a2.709 2.709 0 0 0-2.708 2.71v27.079h16.25v-27.08a2.71 2.71 0 0 0-2.706-2.71z"/>
        <path fill="#2CC22F" d="M127.79 130.032H2.068c-1.142 0-2.068-.912-2.068-2.036s.925-2.036 2.068-2.036H127.79c1.142 0 2.068.912 2.068 2.036s-.926 2.036-2.068 2.036z"/>
    </g>
</svg>
