<svg xmlns="http://www.w3.org/2000/svg" width="233" height="304" viewBox="0 0 233 304">
    <g fill="#000" fill-rule="nonzero">
        <path d="M231.812 0H1.306C.594 0 .12.475.12 1.187v17.687C0 18.993 0 19.23 0 19.467v3.918c0 .712.475 1.187 1.188 1.187h.83v2.611c0 .712.476 1.187 1.188 1.187h3.8c.476 0 .832-.237 1.07-.712l48.096 47.956c-6.176 5.342-13.301 9.615-21.02 12.464-7.72 2.849-15.913 4.392-24.226 4.392H8.194v-2.73c0-.712-.475-1.187-1.187-1.187h-3.8c-.713 0-1.188.475-1.188 1.187v2.73h-.831C.475 92.47 0 92.945 0 93.657v3.799c0 .356.119.712.356.83v7.716c-.118.119-.118.356-.118.475v109.326c0 .119 0 .356.118.475v4.511c.119.118.119.237.119.356.119.119.119.237.238.356l65.553 65.762c0 .118.119.237.238.237.118.119.356.119.475.119h6.887v5.342c0 .712.475 1.187 1.188 1.187.594 0 1.188-.475 1.188-1.187v9.852c0 .712.475 1.187 1.187 1.187h154.383c.594 0 .95-.356 1.188-.83V1.186C233 .475 232.525 0 231.812 0zM2.494 2.374h228.012V275.63h-7.244V10.802c0-.712-.475-1.187-1.188-1.187H10.926c-.713 0-1.188.475-1.188 1.187v7.241H2.494V2.374zm3.444 23.503H4.513v-1.424h1.425v1.424zM2.494 22.08v-1.543h7.482v1.543H2.494zm7.482 3.917l1.068-1.068 48.097 48.075-1.07 1.068L9.977 25.996zM4.513 90.927h1.425v1.543H4.513v-1.543zm-2.02 3.917h7.483v1.425H2.494v-1.425zm7.364 3.799v6.528H2.613v-6.528h7.244zm-7.363 8.902h7.482v1.425H2.494v-1.425zm4.394 3.918v1.424H5.344v-1.424h1.544zM73.866 285.6H67.93l-64.96-65.05v-4.392c0-.118 0-.356-.119-.475V111.82h.594v108.139c0 .119 0 .356.119.475L67.81 284.65c.119 0 .119.119.237.119.238.119.357.237.594.237h5.225v.594zm0-6.766h-3.325L9.62 217.584V111.7h.594v103.866c-.119.118-.119.356-.119.475v.95c0 .118.119.237.119.355.119 0 .119.12.119.12 0 .118.119.236.237.355l29.69 29.676 30.164 30.388c.118.119.237.238.356.238.119.118.237.118.356.118h2.731v.594zm1.188-3.205c-.237 0-.594.119-.713.237H71.73l-29.927-30.032-29.451-29.557c.118-.119.118-.356.118-.475V106.477c0-.119 0-.356-.118-.475v-8.428c0-.237-.12-.593-.238-.712v-1.9c17.101-.355 33.727-6.765 46.315-18.042.238 0 .356-.119.475-.237l2.138-2.137.594-.594a1.147 1.147 0 0 0 0-1.661L12.232 22.91v-3.443c0-.237 0-.356-.119-.593v-6.885h208.893v263.64H75.054zm3.563 25.996v-21.13h152.008v21.13H78.617z"/>
        <path d="M93.131 137.752c0 6.228-3.78 9.635-8.506 9.635-4.844 0-8.27-3.76-8.27-9.282 0-5.758 3.662-9.518 8.506-9.518 4.962-.117 8.27 3.76 8.27 9.165zm-14.295.235c0 3.878 2.126 7.403 5.789 7.403 3.78 0 5.907-3.407 5.907-7.52 0-3.642-1.89-7.402-5.79-7.402-3.898 0-5.906 3.525-5.906 7.52zM96.203 128.822h9.806v1.998h-7.443v6.11h6.97v1.998h-6.97v8.225h-2.363zM109.435 128.822h9.806v1.998h-7.443v6.11h6.97v1.998h-6.97v8.225h-2.363zM125.03 128.822v18.213h-2.362v-18.212zM141.926 146.447c-.827.47-2.6.823-4.844.823-5.199 0-9.098-3.29-9.098-9.165 0-5.758 3.9-9.518 9.57-9.518 2.245 0 3.78.47 4.372.823l-.591 1.88c-.945-.47-2.127-.705-3.663-.705-4.253 0-7.088 2.702-7.088 7.52 0 4.465 2.599 7.285 7.088 7.285 1.418 0 2.954-.353 3.9-.705l.354 1.762zM154.33 138.458h-7.088v6.58h7.916v1.997h-10.279v-18.212h9.924v1.997h-7.56v5.758h7.088zM106.127 159.843h-6.852l-.355 2.702h1.182c1.654 0 3.426.353 4.608 1.293 1.3.94 2.126 2.35 2.126 4.347 0 3.29-2.835 6.11-7.561 6.11-2.127 0-3.899-.47-4.962-1.057l.709-3.055c.827.352 2.362.822 4.016.822 1.655 0 3.545-.823 3.545-2.703 0-1.762-1.418-2.937-4.962-2.937-.945 0-1.654 0-2.363.117l1.181-9.164h9.688v3.525zM122.431 165.13c0 5.405-2.244 9.165-6.734 9.165-4.608 0-6.616-4.113-6.616-9.047 0-5.053 2.127-9.048 6.734-9.048 4.726 0 6.616 4.113 6.616 8.93zm-9.215.117c0 3.995.945 5.993 2.6 5.993 1.653 0 2.48-1.998 2.48-5.992 0-3.878-.827-5.993-2.48-5.993-1.537 0-2.6 1.997-2.6 5.993zM137.436 165.13c0 5.405-2.245 9.165-6.734 9.165-4.608 0-6.617-4.113-6.617-9.047 0-5.053 2.127-9.048 6.735-9.048 4.844 0 6.616 4.113 6.616 8.93zm-9.097.117c0 3.995.945 5.993 2.599 5.993 1.654 0 2.481-1.998 2.481-5.992 0-3.878-.827-5.993-2.481-5.993s-2.6 1.997-2.6 5.993z"/>
    </g>
</svg>
